<?xml version="1.0" encoding="iso-8859-1"?>
<!-- Uploaded to: SVG Repo, www.svgrepo.com, Generator: SVG Repo Mixer Tools -->
<svg fill="#000000" version="1.1" id="Layer_1" xmlns="http://www.w3.org/2000/svg" xmlns:xlink="http://www.w3.org/1999/xlink" 
	 viewBox="0 0 491.566 491.566" xml:space="preserve">
<g>
	<g>
		<g>
			<rect x="225.318" y="51.227" width="61.44" height="61.44"/>
			<path d="M471.086,51.223h-40.96c0-11.305-9.155-20.48-20.48-20.48h-40.96c-11.325,0-20.48,9.175-20.48,20.48h-20.48v81.92
				c0,11.325-9.155,20.48-20.48,20.48h-102.4c-11.326,0-20.48-9.155-20.48-20.48v-81.92h-40.96c0-11.305-9.155-20.48-20.48-20.48
				h-40.96c-11.325,0-20.48,9.175-20.48,20.48h-40.96c-11.325,0-20.48,9.175-20.48,20.48v43.786c0,4.424,1.434,8.745,4.076,12.288
				l8.683,11.571c3.195,4.239,3.195,10.199-0.02,14.459l-8.663,11.571c-2.642,3.523-4.076,7.844-4.076,12.268v37.417
				c0,11.326,9.155,20.48,20.48,20.48h40.96c4.465,0,6.799,2.724,7.823,4.362c1.004,1.618,2.376,4.936,0.901,7.987L6.169,360.86
				c-11.121,25.047-7.004,53.76,10.711,74.895c13.394,15.933,34.038,25.068,56.73,25.068h99.656c20.705,0,38.83-11.715,47.35-30.577
				c8.52-18.842,5.284-40.202-8.397-55.726l-2.335-2.621l20.05-54.436h42.598c41.021,0,75.674-36.598,75.674-79.913v-2.007h102.4
				c11.325,0,20.48-9.155,20.48-20.48v-40.96c11.325,0,20.48-9.155,20.48-20.48v-81.92
				C491.566,60.398,482.411,51.223,471.086,51.223z M122.926,378.903c-11.305,0-20.48-9.155-20.48-20.48
				c0-11.305,9.175-20.48,20.48-20.48c11.305,0,20.48,9.175,20.48,20.48C143.406,369.748,134.231,378.903,122.926,378.903z
				 M143.406,317.463c-11.305,0-20.48-9.155-20.48-20.48c0-11.305,9.175-20.48,20.48-20.48c11.305,0,20.48,9.175,20.48,20.48
				C163.886,308.308,154.711,317.463,143.406,317.463z M307.246,237.55c0,20.398-16.548,38.953-34.714,38.953h-27.525l15.094-40.96
				h47.145V237.55z"/>
		</g>
	</g>
</g>
</svg>