<?xml version="1.0" encoding="iso-8859-1"?>
<!-- Uploaded to: SVG Repo, www.svgrepo.com, Generator: SVG Repo Mixer Tools -->
<!DOCTYPE svg PUBLIC "-//W3C//DTD SVG 1.1//EN" "http://www.w3.org/Graphics/SVG/1.1/DTD/svg11.dtd">
<svg height="800px" width="800px" version="1.1" id="Capa_1" xmlns="http://www.w3.org/2000/svg" xmlns:xlink="http://www.w3.org/1999/xlink" 
	 viewBox="0 0 492.493 492.493" xml:space="preserve">
<path id="utility-knife" style="fill:#000100;" d="M469.386,421.731L281.704,267.504c5.293-6.468,5.148-15.91-0.895-21.939
	c-4.52-4.521-10.961-5.682-16.656-3.847c-17.953-21.587-60.53-71.404-114.375-125.259C87.309,53.999,26.119,10.794,11.239,0.611
	c-0.764-0.529-1.541-0.724-2.074-0.547C8.636,0.258,8.433,0.823,8.618,1.56c4.398,17.324,28.037,100.069,92.02,164.058
	c37.149,37.14,97.403,97.398,114.045,114.045c2.518,2.509,5.645,3.639,7.377,2.657l10.404-5.952
	c-0.379,4.647,1.013,9.41,4.57,12.963c3.218,3.218,7.431,4.827,11.643,4.827c3.693,0,7.282-1.465,10.306-3.941l154.249,187.719
	c7.119,8.683,17.65,13.944,28.868,14.509c11.25,0.561,22.206-3.684,30.166-11.647c7.964-7.959,12.194-18.897,11.625-30.161
	C483.358,439.376,478.06,428.921,469.386,421.731z"/>
</svg>