<?xml version="1.0" encoding="iso-8859-1"?>
<!-- Uploaded to: SVG Repo, www.svgrepo.com, Generator: SVG Repo Mixer Tools -->
<!DOCTYPE svg PUBLIC "-//W3C//DTD SVG 1.1//EN" "http://www.w3.org/Graphics/SVG/1.1/DTD/svg11.dtd">
<svg fill="#000000" height="800px" width="800px" version="1.1" id="Capa_1" xmlns="http://www.w3.org/2000/svg" xmlns:xlink="http://www.w3.org/1999/xlink" 
	 viewBox="0 0 472.984 472.984" xml:space="preserve">
<g>
	<path d="M457.983,43.796L457.983,43.796c-20.002-20.002-52.549-20.002-72.551,0l-96.212,96.212l-5.625-5.625
		c-7.896-7.895-20.744-7.894-28.639,0L2.929,386.411c-3.905,3.905-3.905,10.237,0,14.142c7.784,7.784,16.405,14.697,25.624,20.547
		c23.796,15.1,51.677,23.09,79.874,23.09c5.142,0,10.297-0.266,15.437-0.803c33.82-3.533,65.712-18.745,89.801-42.834
		l153.731-153.731c7.895-7.896,7.895-20.743,0-28.639l-5.625-5.625l96.212-96.212C477.985,96.344,477.985,63.798,457.983,43.796z
		 M368.886,88.627l44.266,44.266l-10.567,10.567l-44.266-44.266L368.886,88.627z M102.304,324.608
		c1.016,2.601,3.074,4.659,5.675,5.675l16.854,6.587l6.587,16.855c1.016,2.6,3.073,4.657,5.673,5.674l16.859,6.589l3.062,7.833
		c-12.097,6.938-26.086,11.027-40.45,11.572c-15.987,0.613-39.07-3.012-62.004-22.329l45.135-45.135L102.304,324.608z
		 M174.016,360.904c-0.137,0.137-0.283,0.264-0.421,0.4l-2.609-6.675c-1.017-2.6-3.073-4.657-5.673-5.673l-16.858-6.589
		l-6.587-16.856c-1.016-2.601-3.074-4.658-5.674-5.674l-16.854-6.586l-4.203-10.76l14.45-14.45l2.609,6.678
		c1.016,2.601,3.074,4.659,5.674,5.675l16.855,6.587l6.588,16.856c1.016,2.6,3.073,4.657,5.673,5.674l16.858,6.589l4.209,10.769
		L174.016,360.904z M203.491,331.429l-2.615-6.69c-1.016-2.6-3.073-4.657-5.673-5.673l-16.858-6.589l-6.588-16.856
		c-1.016-2.601-3.074-4.658-5.674-5.674l-16.854-6.586l-4.203-10.76l14.45-14.45l2.609,6.678c1.016,2.601,3.074,4.659,5.675,5.675
		l16.854,6.587l6.588,16.855c1.016,2.6,3.073,4.657,5.673,5.674l16.858,6.589l4.209,10.769L203.491,331.429z M233.382,301.538
		l-2.615-6.69c-1.017-2.6-3.073-4.657-5.673-5.673l-16.858-6.589l-6.588-16.856c-1.017-2.601-3.074-4.658-5.674-5.674l-16.854-6.586
		l-4.203-10.76l14.451-14.451l2.609,6.678c1.016,2.601,3.074,4.659,5.674,5.675l16.854,6.587l6.588,16.856
		c1.016,2.6,3.073,4.657,5.673,5.674l16.858,6.589l4.209,10.769L233.382,301.538z M263.272,271.648l-2.615-6.691
		c-1.016-2.6-3.073-4.657-5.673-5.673l-16.858-6.589l-6.588-16.856c-1.016-2.601-3.074-4.658-5.674-5.674l-16.854-6.586
		l-4.204-10.76l14.45-14.45l2.609,6.678c1.016,2.601,3.074,4.659,5.674,5.675l16.854,6.587l6.589,16.856
		c1.016,2.6,3.073,4.657,5.673,5.673l16.858,6.589l4.209,10.769L263.272,271.648z M293.162,241.758l-2.615-6.69
		c-1.016-2.6-3.073-4.657-5.673-5.673l-16.858-6.589l-6.589-16.856c-1.016-2.601-3.073-4.658-5.674-5.674l-16.854-6.586
		l-4.203-10.76l9.828-9.828l58.648,58.648L293.162,241.758z M199.523,386.411c-20.856,20.856-48.464,34.027-77.738,37.085
		c-28.863,3.014-58.169-3.833-82.517-19.283c-5.188-3.292-10.158-6.974-14.855-11.001l15.961-15.961
		c26.286,22.765,53.203,28.206,72.893,28.206c1.387,0,2.742-0.027,4.055-0.077c26.755-1.015,52.574-12.071,70.836-30.333
		L317.315,245.89l11.364,11.364L199.523,386.411z M353.253,232.68l-10.431,10.431l-84.155-84.155l10.432-10.432
		c0.099-0.1,0.258-0.097,0.354,0l12.69,12.69c0.002,0.002,0.003,0.004,0.005,0.006l58.408,58.408
		c0.001,0.001,0.003,0.002,0.004,0.004l12.692,12.692C353.351,232.423,353.351,232.583,353.253,232.68z M303.363,154.15
		l40.814-40.814l44.266,44.266l-40.814,40.814L303.363,154.15z M443.84,102.204l-16.546,16.546l-44.266-44.266l16.546-16.546
		c5.912-5.912,13.772-9.168,22.133-9.168s16.221,3.256,22.133,9.168c0,0,0,0,0,0C456.044,70.142,456.044,90,443.84,102.204z"/>
	<path d="M424.077,67.703c-2.64,0-5.21,1.07-7.069,2.93c-1.86,1.86-2.931,4.44-2.931,7.07c0,2.63,1.07,5.21,2.931,7.07
		c1.859,1.86,4.439,2.93,7.069,2.93c2.631,0,5.211-1.07,7.07-2.93c1.86-1.86,2.93-4.44,2.93-7.07c0-2.63-1.069-5.21-2.93-7.07
		C429.288,68.773,426.708,67.703,424.077,67.703z"/>
</g>
</svg>