<?xml version="1.0" encoding="utf-8"?>

<!-- Uploaded to: SVG Repo, www.svgrepo.com, Generator: SVG Repo Mixer Tools -->
<svg version="1.1" id="Icons" xmlns="http://www.w3.org/2000/svg" xmlns:xlink="http://www.w3.org/1999/xlink" 
	 viewBox="0 0 32 32" xml:space="preserve">
<style type="text/css">
	.st0{fill:none;stroke:#000000;stroke-width:2;stroke-linecap:round;stroke-linejoin:round;stroke-miterlimit:10;}
</style>
<g>
	<path d="M28,11c0-2.8-1.1-5.7-3.2-7.8c-0.4-0.4-1-0.4-1.4,0L10.6,15.9l-6.7,6.7c-0.7,0.7-1,1.5-1,2.5c0,0.9,0.4,1.8,1,2.5
		c0.7,0.7,1.5,1,2.5,1c0.9,0,1.8-0.4,2.5-1l6-6l2.8,2.8c0.2,0.2,0.5,0.3,0.7,0.3s0.5-0.1,0.7-0.3l5.7-5.7c0.5-0.5,0.9-1,1.2-1.5V22
		c0,0.6,0.4,1,1,1s1-0.4,1-1L28,11C28,11,28,11,28,11z M23.4,17.3l-5,5l-2.8-2.8c0,0,0,0,0,0l-2.8-2.8L24,5.3
		C26.9,8.8,26.6,14,23.4,17.3z"/>
	<path d="M27.7,24.3c-0.3-0.3-0.7-0.4-1.1-0.2c-0.1,0-0.2,0.1-0.3,0.2c-0.1,0.1-0.2,0.2-0.2,0.3C26,24.7,26,24.9,26,25
		s0,0.3,0.1,0.4c0.1,0.1,0.1,0.2,0.2,0.3c0.2,0.2,0.4,0.3,0.7,0.3c0.1,0,0.3,0,0.4-0.1s0.2-0.1,0.3-0.2c0.2-0.2,0.3-0.4,0.3-0.7
		c0-0.1,0-0.3-0.1-0.4C27.9,24.5,27.8,24.4,27.7,24.3z"/>
</g>
</svg>